# xmcd
#
# Track frame offsets:
#	150
#	15166
#	31294
#	45910
#	57164
#	76404
#	91796
#	103528
#	113027
#	124367
#
# Disc length: 1839 seconds
# Revision: 0
# Processed by: cddbd v1.5.2PL0 Copyright (c) Steve Scherf et al.
# Submitted via: dBpowerAMP V12.0
#
DISCID=69072d0a
DTITLE=George Strait - Lead On
DYEAR=1994
DGENRE=Country*
TTITLE0=You Can't Make A Heart Love Somebody
TTITLE1=Adalida
TTITLE2=I Met A Friend Of Yours Today
TTITLE3=Nobody Has To Get Hurt
TTITLE4=Down Louisiana Way
TTITLE5=Lead On
TTITLE6=What Am I Waiting For
TTITLE7=The Big One
TTITLE8=I'll Always Be Loving You
TTITLE9=No One But You
EXTD=
EXTT0=
EXTT1=
EXTT2=
EXTT3=
EXTT4=
EXTT5=
EXTT6=
EXTT7=
EXTT8=
EXTT9=
PLAYORDER=
